<svg version="1.2" xmlns="http://www.w3.org/2000/svg" viewBox="0 0 1024 502" width="1024" height="502">
	<title>image</title>
	<style>
		.s0 { fill: #000000 } 
	</style>
	<path id="Procopenses" class="s0" aria-label="Procopenses"  d="m144.1 432.9q-0.4 0-1 0-0.6 0-1-0.2-2-0.8-2.8-3.7-0.8-3-0.8-7.2 0-1.8 0-3.6 0.2-2 0.4-4 1-11 5.2-23.6 4.2-12.4 10.4-25.4 6.2-13.3 13.6-26.9 7.4-13.6 14.8-26.8 7.4-13 14-25.5 6.9-12.6 11.5-23.6 0.2-0.4 0.6-1.6 0.4-1.2-0.4-1.2-1.6 2.4-4.2 7-2.4 4.6-5.5 10-3 5.4-5.8 10.4-2.8 4.8-5 8.1-11 17.2-22.4 33-11.4 15.8-26.6 26.6-6 3.8-14.7 7.1-8.4 3-15.2 3-6.8 0-10.6-4.5-3.6-4.6-3.6-11.6 0-6.2 3-12.8 2.2-5 8-12 5.8-7 13.8-13.8 8-6.8 17.1-11.2 1.4-0.8 0.6 0.4-1 1.2-2 2-12.7 12-19.3 22.4-6.6 10.4-9.2 18.2-2.6 7.2-2.6 12.2 0 6.6 5.2 6.6 3.6 0 8.6-2.4 5.2-2.4 10-5.6 5.1-3.2 8.1-5.6 6.4-5.4 13.2-12.8 6.6-7.2 13-15.2 6.4-8 12.4-16.4l11.4-16.1q5.2-7.6 9.6-13.8 4.6-6.2 7.9-10.2 1.6-2.2 3.6-4.2 2-2 5.2-2 4 0 5.4 2.2 1.6 2.2 1.6 5.2 0 4-2 7.6-4.8 9.2-11.2 20.4-6.7 11.5-13.7 23.9-7 12.2-14 25-7.2 13-13.4 25.5-6.2 12.4-10.8 24-4.4 11.4-6.4 20.8-1.6 7-2 12.2v2.4q0 3 0.8 3 0.8 0 2.8-3.8 2-3.6 4.8-9.8 2.8-6.2 6.4-14.4l7.2-17.4q3.8-9 7.8-18.2 4-9.5 7.8-17.9 2.4-5.4 6-12.8 3.6-7.4 8-15.4 4.5-8 9.3-15.6 4.8-7.6 9.2-13.5 13.2-17.8 25-27.2 12-9.6 26.8-11 1-0.2 1.9-0.2 0.8 0 1.6 0 12 0 19.6 7.8 7.8 7.8 7.8 21.2 0 9.8-5.6 20.3-5.6 10.4-14.6 20-9 9.4-19.5 17-12.2 8.4-25.8 14.2-13.6 5.8-26.6 7-1.6 0.2-3.2 0.4-1.6 0-3.1 0-3.2 0-6-0.6-4.8-1.2-6.2-2.2-1.8-1-1.8-1.6 0-1 2.2 0 2 1 6.4 1 2.2 0 4.6-0.2 2.7-0.4 5.3-0.6 7.8-0.8 16.4-5 8.8-4.4 17.2-10.4 8.6-6.2 15.6-12.2 2.6-2 6.4-6.4 4-4.6 8.4-10.4 4.5-5.8 8.5-12 4-6.3 6.6-11.7 5-10 5-16.6 0-7-4-10.2-4-3.4-11-3.4-5.9 0-11.7 1.8-7.2 2.4-14.6 7.2-7.4 4.8-13.4 11.6-13.4 15.2-24.6 31.7-11.3 16.4-19.9 34.4-2.2 4.6-4.8 12.2-1.4 4.4-3.6 10.7-2 6.2-4.4 12.6-2.2 6.4-4 11.4-3.4 9.4-7 17.4-3.6 8.2-7.4 14.4-3.8 6.2-7.8 8.7-1.2 0.8-3.2 1.4-1.8 0.6-3.6 0.6zm141.8-3.3q-6.2 0-9-3-2.6-3.2-2.6-8.2 0-3.2 1.2-7.6 1.6-6.8 5.4-14.6 4-8 7-12.6 2.4-3.6 4.8-7.4 2.4-3.8 5-7.8l9.8-15.7q2.8-4.4 2.8-8.8 0-4.8-3.8-7.4l-2.8-1.8q-1.6-1-2.4-1.8l-2.8 4.6-2.8 4.4q-4.2 5.8-9.6 12.8-5.4 7.1-10.4 13.5-5 6.4-8.5 10.2-0.6 0.6-1.2 0.6-1 0-1.6-1-0.4-1 0.4-1.8 7.9-8.8 15.1-18.1 7.4-9.4 13.4-19.6l2.4-4 2.4-4.2q-1.6-1-3-3.6-1.4-2.8-1.4-5.2 0-3.4 2.8-4h0.2q2 0 4 2.4 2 2.8 1.8 10.2 4.8 3.6 9.4 4.8 4.6 1.2 7.4 3 3 1.6 3 6.4 0 0.8-0.2 1.8 0 1-0.2 2-1 4.8-5.2 11.8-4 7.1-9 14.5-5 7.2-8.6 12.6-3.6 5.8-7.6 12.8-4 6.8-6.6 13-2.4 6.2-1.6 9.8 0.6 2 2.8 2 3.2 0 7.8-2.6 6.2-3.6 11.4-7.6 5.2-4.2 10.8-9.8 3-3 7.6-8.2 4.8-5.4 10-11.4 5.3-6.2 9.7-11.2 1.8-2.4 4-4.8l4-4.4q0.6-0.6 1-0.6 1.2 0 1.2 1.6 0 0.6-1 2-2 2.8-4.6 5.8-2.4 3-4.6 5.6-5.2 6-11.7 13.6-6.2 7.4-12.6 14.6-6.2 7.2-12 12.4-4.6 4-9.6 7-5 3-11.6 3zm78.9-32.8q-6.8 0-11.4-5.8-4.4-5.8-4.4-14.8 0-7.2 2.4-14.2 2.4-6.9 6.4-13.1 4.2-6.2 9.4-11.6 6.8-7 15.4-12.2 8.8-5.2 16-5.2 5.6 0 8.7 2.8 3.2 2.6 3.2 6.4 0 2.4-1.6 5.2 5.2 0.6 10.2 0.6 3.8 0 7.6-0.4 3.8-0.4 7.6-1.2h0.8q1.6 0 1.6 0.8 0 0.8-1.8 1.4-2 0.8-6.6 1.6-4.6 0.8-9.6 1.4-5 0.4-9 0.4-1.4 0-2.4 0-1.1 0-1.9-0.2l-2 1q2.4 3.4 2.4 9.4 0 8-4 16.5-3.8 8.2-10.2 15.4-6.2 7-13.4 11.4-7 4.4-13.4 4.4zm1.8-4.8q5.4 0 10.6-3.8 5.2-4 9.4-10.2 4.4-6.4 7.2-13.6 3-7.5 4-14.3 0.2-1.2 0.2-2.2 0-1.2 0-2.2 0-1.8-0.2-3.2-0.2-1.6-0.8-2.4-0.4 0-0.6-0.2-2.4-0.4-3.6-1.2-1-0.8-2.4-1.8-0.8-1-0.8-2.4 0-1.4 1-2.2 1.2-0.8 2.6-0.4 5 1 10.8 1.8 2-3.4 2-6.2 0-4.8-7.2-4.8-4.4 0-9.2 3.4-4.6 3.2-9.2 8.6-4.6 5.2-8.8 11.6-4.2 6.2-7.2 12.2-2 4.1-3.6 9.9-1.4 5.8-1.4 11.2 0 5 1.6 8.8 1.8 3.6 5.6 3.6zm63.5 10q-8.6 0-12.2-5.2-3.6-5.2-3.6-13.2 0-5.8 1.4-12.6 1.6-7 3.8-13.5 2.4-6.4 4.6-10.8 4-8.2 9.6-16.6 5.6-8.6 12-15.6 6.4-7 13.2-11.2 7-4.4 13.6-4.4 5.9 0 8.7 4.2 3 4 3 9.4 0 5.8-3.2 10.4-6.7 9.6-9.7 9.6-1 0-1-1.4 0-1.4 1.6-5.6 0.8-1.8 2-5.2 1.3-3.6 2.1-7.2 1-3.8 0.8-6.6-0.6-0.2-1.8-0.2-4.3 0-9.3 3.4-4.8 3.4-9.8 8.8-5 5.4-9.2 11.4-4.2 5.8-7 10.8-2.2 4-4.8 9.8-2.6 5.6-5 12.1-2.2 6.2-3.4 11.4-0.8 2.8-1.2 5.6-0.4 2.8-0.4 5.4 0 4.4 1.6 7.4 1.8 3 6 3 7 0 13.6-3.2 6.8-3.2 12.8-8.2 6-5 11-10.2 4.2-4.2 7.5-8.6 0.6-0.6 1-0.6 1.2 0 1.2 1.8 0 1-0.8 1.8l-8.9 10.4q-4.2 5-10.8 10.6-6.6 5.4-14.2 9.2-7.6 3.6-14.8 3.6zm61.3-5.2q-6.8 0-11.4-5.8-4.4-5.8-4.4-14.8 0-7.2 2.4-14.2 2.4-6.9 6.4-13.1 4.2-6.2 9.4-11.6 6.8-7 15.4-12.2 8.8-5.2 16-5.2 5.6 0 8.6 2.8 3.2 2.6 3.2 6.4 0 2.4-1.6 5.2 5.2 0.6 10.3 0.6 3.8 0 7.6-0.4 3.8-0.4 7.6-1.2h0.8q1.6 0 1.6 0.8 0 0.8-1.8 1.4-2 0.8-6.6 1.6-4.6 0.8-9.6 1.4-5.1 0.4-9.1 0.4-1.4 0-2.4 0-1 0-1.8-0.2l-2 1q2.4 3.4 2.4 9.4 0 8-4 16.5-3.8 8.2-10.2 15.4-6.2 7-13.4 11.4-7 4.4-13.4 4.4zm1.8-4.8q5.4 0 10.6-3.8 5.2-4 9.4-10.2 4.4-6.4 7.2-13.6 3-7.5 4-14.3 0.2-1.2 0.2-2.2 0-1.2 0-2.2 0-1.8-0.2-3.2-0.2-1.6-0.8-2.4-0.4 0-0.6-0.2-2.4-0.4-3.6-1.2-1-0.8-2.4-1.8-0.8-1-0.8-2.4 0-1.4 1-2.2 1.2-0.8 2.6-0.4 5 1 10.8 1.8 2-3.4 2-6.2 0-4.8-7.2-4.8-4.4 0-9.2 3.4-4.6 3.2-9.2 8.6-4.6 5.2-8.8 11.6-4.2 6.2-7.2 12.2-2 4.1-3.6 9.9-1.4 5.8-1.4 11.2 0 5 1.6 8.8 1.8 3.6 5.6 3.6zm15.4 88.9q-1.4 0-3.2-4-1.6-4-1.6-10 0-1.8 0.2-3.8 0.2-2 0.6-4 2.2-9.4 6.6-21.4 4.2-12.1 9.8-25.3 5.6-13.2 12.2-27 6.4-13.6 12.9-26.5 6.4-12.6 12.2-23.6 6-11 10.6-18.8 7-11.8 12.8-17.6 5.8-6.1 11.2-8.5 5.6-2.6 11.8-4-5.8 5.8-12.4 14.7-13.4 18.2-27.2 42.2-6.8 12-13 23.9-6.4 11.8-12.1 23-5.4 11.2-9.4 20.4l-1.4 3.8-1.8 5.2q4-8.8 9-18.8 5.2-10 10.9-19.8 5.6-9.8 11-18.2 5.4-8.7 9.6-14.5 6.4-8.4 12.8-13.8 6.6-5.4 11.2-5.4 5.6 0 7.8 3.4 2.2 3.2 2.2 8 0 7.2-3 15.4-2.8 8.3-8 16.3-5 8-11.8 14.6-6.8 6.6-14.6 10.6-7.6 4-15.8 4-4.2 0-5.9-3.4-6 11.2-12.2 24.6-6.2 13.3-13.6 30.1-2 7.4-3.8 14.2-1.8 6.8-3 12-0.6 2-1.6 2zm40.1-83.1q6.6 0 13.4-5.4 7-5.6 13-14 6.2-8.4 9.8-17.3 1.2-2.8 2.4-6.8 1.4-4.2 2.4-8.4 1-4.2 1-7 0-3.8-2-3.8-3.4 0-7.8 4.4-4.2 4.2-8.8 10.6-7.2 10.2-14 21.1-6.8 10.8-14 24.4 1.2 2.2 4.6 2.2zm63 27q-7.8 0-12-6.2-4.2-6.4-4.2-18 0-2 0-4 0.2-2 0.4-4.2 1.2-9.8 6-21.4 5-11.7 15.3-24.9 6.8-8.8 14.8-13.2 8-4.4 15.4-4.4 5.2 0 9.2 2 4.8 2.6 4.8 9.4 0 5-3.6 11.2-3.6 6-12.2 11.7-11.4 7.2-19 9.6-7.6 2.4-12.2 2.6-1.6 2.2-3.3 7-1.6 4.6-2.8 9.8-1 5-1.4 9 0 0.8-0.2 1.8 0 0.8 0 1.8 0 6 2 10.4 2.2 4.2 7.7 4.2 4.8 0 10.8-3.4 6-3.6 11.8-8.4 6-5 10.4-9.4 4.6-4.6 6.4-6.8l14.8-17.2 8-9.2q0.6-0.6 1-0.6 1.3 0 1.3 1.6 0 0.6-1.1 2-2 2.8-4.6 5.8-2.4 3-4.6 5.6-2.8 3.2-7 8.2-4 5-8.6 10.4-4.4 5.4-8.6 9.4-7.6 7.4-16.4 12.6-8.6 5.2-18.3 5.2zm4.5-53q2.8-0.2 7-2.2 4.2-2 8.8-4.8 4.6-2.8 8.4-5.7 4-3 6.4-5 4.6-3.6 6.8-8 2.2-4.4 2.2-7.6 0-2.2-1.2-3.8-1-1.6-3.2-1.6-4.2 0-9.2 4.2-4.8 4-9.8 10.4-4.8 6.2-9.2 12.8-4.2 6.5-7 11.3zm100.7 24.4q-3.4 0-4.8-2.6-1.4-2.6-1.4-6.2 0-6.4 3.4-14.6 3.6-8.2 8.2-16.9 4.6-8.6 8-16.2 3.6-7.8 3.6-13.2 0-2.6-1-4.2-0.8-1.6-2.6-1.6-2.4 0-5.8 2.6-3.8 2.6-8.6 8.6l-7.4 9.2q-5.8 7.2-11.8 15.4-5.8 8.1-10.6 15.1-4.6 7-6.9 11.2-1.8 3.2-4.2 3.2-1.4 0-2.6-1.4-1.2-1.4-1.2-3.6 0-1.4 0.6-3.2 7-13.4 13.3-28.7 6.4-15.2 12.6-27.6 1.8-3.4 6-5.8 4.2-2.6 7.4-2.6 3 0 3 2.2 0 1.2-1.8 4.6-2.2 3.4-5.4 8.8-3.2 5.4-6.6 11.4-3.4 6-6.4 11.4-2.8 5.4-4.2 8.8 2.2-3 6-9 4-6 10.8-14l6.4-7.6q6.4-7.6 11.8-10.4 5.4-2.8 10-2.8 3.6 0 6.2 1.8 2.6 1.8 2.6 6.2 0 5.2-2.2 10.4-2.2 5-3.6 8-1.4 3.2-4 8.8-2.6 5.6-5.2 12.1-2.6 6.4-4.4 12-1.8 5.6-1.8 8.6 0 2.6 1.6 2.6 2 0 5.2-2 3.4-2.2 6.6-4.8 3.4-2.6 5.2-4.2 6.6-6 13.5-14 1-1.3 1.6-1.3 0.6 0 0.6 1.3 0 0.6-0.6 1.6-0.4 1-1 2.2-1.2 2-3.8 5.4-2.7 3.2-5.5 6.2-4.2 4.6-9.4 8.8-5 4.2-11.2 7.6-1.6 0.8-3 1.4-1.2 0.4-2 0.6-0.8 0.2-1.6 0.4-0.8 0-1.6 0zm14.8 31.6q-7.4 0.4-11.8-2.6-4.4-3.2-4.4-7.6 0-2.8 2-5.8 2.2-3.2 6.6-5.8 8.4-5 19-7 10.7-2.2 21.5-5.6l3.8-8q2.4-5.2 4.8-13.4 2.4-8.4 4.2-17.3 1.8-8.8 2.4-14.8-5.8 5.8-11.2 11.6-5.2 5.6-11 12.3-5.8 6.6-13.3 15.2-1.2 1.4-1.8 1.4-0.6 0-0.6-1 0-2.4 2.4-5.4l14.5-17.3q3.4-4 7.4-8.2 4-4.2 8.2-8.6l5-5.2q0.6-3.4 1.8-7.2 1.2-3.8 3.4-6.4 2.4-2.6 6.2-2.6 4 0 5.4 2.2 1.4 2.2 0.8 4.4-1.6 0.6-5.6 4.2-4 3.4-7.8 6.8 0.2 1.8 0.2 4 0 2 0 4.4 0 4.8-0.4 10.8-0.2 5.8-1.2 13.1-1.6 10.6-4.4 19.6 5-2.6 9.6-5.8 4.6-3.4 9.2-8.2 1.6-1.8 3.2-3.6 1.6-1.8 3.2-3.8 0.4-0.4 0.8-0.4 0.6 0 1 1 0.6 1 0 1.8-3.6 5-8.2 9.6-4.2 4.2-9.4 7.8-5.2 3.4-11 6.4-5.8 14.8-16.6 24.4-10.9 9.4-27.9 10.6zm-4.4-4.6q2.2 0 4.8-0.6 7-1.6 14.6-7 7.7-5.6 14.9-17.2-8.8 2.6-17.5 4.6-8.8 2-17.2 6.8-6.6 3.8-6.6 8.6 0 4.8 7 4.8zm82.5 1.6q-7.8 0-12-6.2-4.2-6.4-4.2-18 0-2 0-4 0.2-2 0.4-4.2 1.2-9.8 6-21.4 5-11.7 15.2-24.9 6.9-8.8 14.9-13.2 8-4.4 15.4-4.4 5.2 0 9.2 2 4.8 2.6 4.8 9.4 0 5-3.6 11.2-3.6 6-12.2 11.7-11.4 7.2-19 9.6-7.7 2.4-12.3 2.6-1.6 2.2-3.2 7-1.6 4.6-2.8 9.8-1 5-1.4 9 0 0.8-0.2 1.8 0 0.8 0 1.8 0 6 2 10.4 2.2 4.2 7.6 4.2 4.9 0 10.9-3.4 6-3.6 11.8-8.4 6-5 10.4-9.4 4.6-4.6 6.4-6.8l14.8-17.2 8-9.2q0.6-0.6 1-0.6 1.2 0 1.2 1.6 0 0.6-1 2-2 2.8-4.6 5.8-2.4 3-4.6 5.6-2.8 3.2-7 8.2-4 5-8.6 10.4-4.4 5.4-8.6 9.4-7.6 7.4-16.4 12.6-8.6 5.2-18.3 5.2zm4.4-53q2.8-0.2 7.1-2.2 4.2-2 8.8-4.8 4.6-2.8 8.4-5.7 4-3 6.4-5 4.6-3.6 6.8-8 2.2-4.4 2.2-7.6 0-2.2-1.2-3.8-1-1.6-3.2-1.6-4.2 0-9.2 4.2-4.8 4-9.8 10.4-4.8 6.2-9.2 12.8-4.3 6.5-7.1 11.3zm41.9 56q-7.4 0.4-11.8-2.6-4.4-3.2-4.4-7.6 0-2.8 2-5.8 2.2-3.2 6.6-5.8 8.4-5 19-7 10.6-2.2 21.5-5.6l3.8-8q2.4-5.2 4.8-13.4 2.4-8.4 4.2-17.3 1.8-8.8 2.4-14.8-5.8 5.8-11.2 11.6-5.2 5.6-11.1 12.3-5.8 6.6-13.2 15.2-1.2 1.4-1.8 1.4-0.6 0-0.6-1 0-2.4 2.4-5.4l14.4-17.3q3.5-4 7.5-8.2 4-4.2 8.2-8.6l5-5.2q0.6-3.4 1.8-7.2 1.2-3.8 3.4-6.4 2.4-2.6 6.2-2.6 4 0 5.4 2.2 1.4 2.2 0.8 4.4-1.6 0.6-5.6 4.2-4 3.4-7.8 6.8 0.2 1.8 0.2 4 0 2 0 4.4 0 4.8-0.4 10.8-0.2 5.8-1.2 13.1-1.6 10.6-4.4 19.6 5-2.6 9.6-5.8 4.6-3.4 9.2-8.2 1.6-1.8 3.2-3.6 1.6-1.8 3.2-3.8 0.4-0.4 0.8-0.4 0.6 0 1 1 0.6 1 0 1.8-3.6 5-8.2 9.6-4.2 4.2-9.4 7.8-5.2 3.4-11 6.4-5.8 14.8-16.7 24.4-10.8 9.4-27.8 10.6zm-4.4-4.6q2.2 0 4.8-0.6 7-1.6 14.6-7 7.6-5.6 14.9-17.2-8.9 2.6-17.5 4.6-8.8 2-17.2 6.8-6.6 3.8-6.6 8.6 0 4.8 7 4.8z"/>
	<path id="AVES" class="s0" aria-label="AVES"  d="m409.7 241.1c-6.5-1.3-5.7 0.4-15-23.1l-29.1-72.9c-2.6-6.7-3.1-9.1-4-14h-24.4c2.6 4.5 3.3 6.4 3.3 8.6 0 1.9-1.3 5.4-2.8 9.3l-26.4 68.9c-9.1 23.6-8.4 21.9-14.9 23.2-2.9 0.6-2.9 3.2-2.9 6.9h31.2c0-3.7 0-6.3-3-6.9-6.3-1.3-7 0.4 1.9-23.2l2.4-6.6h42.8l2.4 6.6c9.1 23.6 8.4 21.9 2.3 23.2-2.8 0.6-2.8 3.2-2.8 6.9h41.8c0-3.7 0-6.3-2.8-6.9zm-80-39.4l17.5-47.1 17.9 47.1zm201.1-70.6h-34.9c0 3.8 0 6.4 3.1 6.9 7.6 1.3 8.4-0.3-0.4 23.5l-22.1 61.8-24.7-62.2c-9.4-23.4-8.6-21.8-1.2-23.1 3.4-0.5 3.4-3.1 3.4-6.9h-45.2c0 3.8 0 6.4 3.1 6.9 7.1 1.3 6.4-0.3 15.7 23.1l35.7 89.7h15.2l32.8-89.5c8.6-23.6 8-22 16-23.3 3.5-0.5 3.5-3.1 3.5-6.9zm98.3 85.5c-2.1 0-3.6 0.7-5 4-7.3 15.7-9.5 17.7-22.2 17.7h-26.6c-3.7 0-4.1-2-4.1-6.3v-41.1h4.7c25.3 0 23.4 0 24.7 6.5 0.6 2.8 3.2 2.8 6.9 2.8v-28.3c-3.7 0-6.3 0-6.9 2.8-1.3 6.5 0.6 6.5-24.7 6.5h-4.7v-34c0-4.3 0.4-6.4 4.1-6.4h21c12.5 0 14 0 17.7 12.3 1.1 3.7 3 4.1 5 4.1h4.1l-1.3-26.1h-82.2c0 3.8 0 6.4 3 6.9 6.7 1.3 6.7-0.5 6.7 24.8v53.6c0 25.3 0 23.4-8.4 24.7-3.6 0.6-3.6 3.2-3.6 6.9h91.2l4.7-31.4zm59.3 34.2c25.3 0 42.1-20.3 42.1-34.8 0-18.2-11.7-27.4-30.7-36.3-12.5-5.9-26.8-12.6-26.8-26 0-9 7.8-15.7 16.7-15.7 12.1 0 20.9 5.6 23.7 20.9 0.5 2.9 1.4 3.7 4.4 3.7h4.5v-27.5c-7.3-2.8-17.7-6.7-29.6-6.7-24.2 0-40.4 18.9-40.4 33.4 0 13.4 6 23.3 24.2 32.6 19.2 9.9 31.8 15.8 31.8 28.3 0 8.7-5.9 18.4-18.8 18.4-18.6 0-24.7-10-31.6-27.2-1.5-3.7-2.2-4-5.2-4h-4.5l5.6 35.1c8.8 2.6 20.9 5.8 34.6 5.8z"/>
</svg>